<svg xmlns="http://www.w3.org/2000/svg" viewBox="0 0 585 156.67"><defs><style>.cls-1{fill:#5fc2f9;}.cls-2{fill:#fff;}</style></defs><title>Asset 1</title><g id="Layer_2" data-name="Layer 2"><g id="Layer_2-2" data-name="Layer 2"><polygon class="cls-1" points="369 156 0 156 0 0 369 0 369 80 352 107.61 369 107.96 369 156"/><path class="cls-2" d="M60.2,122.93V50H39.75V34.26H97.81V50H77.36v72.93Z"/><path class="cls-2" d="M153.15,34.26A21.61,21.61,0,0,1,174.6,55.71V73.45A21.38,21.38,0,0,1,160,93.75l15.73,29.18H156.3l-15.16-28h-8.72v28H115.26V34.26ZM132.42,50V79.17h20.73a4.4,4.4,0,0,0,4.29-4.29V54.29A4.4,4.4,0,0,0,153.15,50Z"/><path class="cls-2" d="M256.25,34.26v67.22a21.42,21.42,0,0,1-21.45,21.45H215.36a21.43,21.43,0,0,1-21.46-21.45V34.26h17.16v68.65a4.22,4.22,0,0,0,4.3,4.29H234.8a4.21,4.21,0,0,0,4.29-4.29V34.26Z"/><path class="cls-2" d="M317,87.61H293v15.3a4.4,4.4,0,0,0,4.29,4.29h32.18v15.73H297.29a21.42,21.42,0,0,1-21.45-21.45V55.71a21.43,21.43,0,0,1,21.45-21.45h32.18V50H297.29A4.4,4.4,0,0,0,293,54.29V71.88h31.32Z"/><polygon class="cls-1" points="585 90.51 366 101 380 79 382 0 585 23 585 90.51"/><path class="cls-2" d="M422.07,67.69H411.66c-4.37,0-7.41-2.85-7.41-7.36V47.42c0-4.59,3-7.41,7.41-7.41h10.41v7.1H411.84s-.09,0-.09.09V60.42c0,.13.05.18.18.18h10.14Z"/><path class="cls-2" d="M439.39,40a7.39,7.39,0,0,1,7.37,7.41V60.33a7.37,7.37,0,0,1-7.37,7.36H434a7.39,7.39,0,0,1-7.42-7.36V47.42A7.4,7.4,0,0,1,434,40Zm-5.18,7.1c-.13,0-.17,0-.17.18V60.46c0,.09,0,.14.13.14h5c.09,0,.09-.09.09-.14V47.25a.12.12,0,0,0-.13-.14Z"/><path class="cls-2" d="M464,67.69V60.77l-5.22-7.45V67.69h-7.5V40h7.41L464,47.65V40h7.5V67.69Z"/><path class="cls-2" d="M494.22,47.11H482.71a.16.16,0,0,0-.18.18V50a.1.1,0,0,0,.09.09l5.26.27a7.64,7.64,0,0,1,7.37,7.36v2.64a7.37,7.37,0,0,1-7.37,7.36h-12V60.6h11.61c.27,0,.27-.09.27-.27V57.56c0-.09,0-.13-.18-.13h-5.13A7.32,7.32,0,0,1,475,50.24V47.42A7.39,7.39,0,0,1,482.44,40h11.78Z"/><path class="cls-2" d="M512.62,57.74h-6.29v2.72c0,.09,0,.14.13.14h10.18v7.09h-10.4c-4.42,0-7.41-2.81-7.41-7.36V47.42A7,7,0,0,1,506.24,40h10.4v7.1h-10c-.22,0-.31.09-.31.27v3.26h9.59Z"/><path class="cls-2" d="M533.83,67.69V60.77l-5.22-7.45V67.69h-7.5V40h7.41l5.31,7.64V40h7.5V67.69Z"/><path class="cls-2" d="M550.89,67.69V47.11h-5.76V40h19v7.1h-5.76V67.69Z"/><path class="cls-1" d="M387.48,146.58H398.2v10.09H387.48Z"/><path class="cls-1" d="M440,101.29a13.39,13.39,0,0,1,13.4,13.4v28.58a13.39,13.39,0,0,1-13.4,13.4H427.94a13.39,13.39,0,0,1-13.4-13.4V114.69a13.39,13.39,0,0,1,13.4-13.4Zm-12.06,9.83a2.75,2.75,0,0,0-2.68,2.68v30.37a2.75,2.75,0,0,0,2.68,2.67H440a2.75,2.75,0,0,0,2.68-2.67V113.8a2.75,2.75,0,0,0-2.68-2.68Z"/><path class="cls-1" d="M496.8,156.67l-10.89-17.51h-5.45v17.51H469.74V115a13.59,13.59,0,0,1,13.58-13.67h11.61A13.73,13.73,0,0,1,508.59,115V125.5a13.83,13.83,0,0,1-10.36,13.31l11.17,17.86Zm-13.48-45.55a2.9,2.9,0,0,0-2.86,2.95v15.27h14.47a3,3,0,0,0,2.94-3V114.07a3.09,3.09,0,0,0-2.94-2.95Z"/><path class="cls-1" d="M559.86,111.12H538.24a2.75,2.75,0,0,0-2.68,2.68v30.37a2.63,2.63,0,0,0,2.68,2.67H550.3a2.53,2.53,0,0,0,2.68-2.67v-7.69a2.54,2.54,0,0,0-2.68-2.68h-8.57V123.09h8.57a13.46,13.46,0,0,1,13.49,13.39v6.79a13.47,13.47,0,0,1-13.49,13.4H538.24a13.38,13.38,0,0,1-13.39-13.4V114.69a13.5,13.5,0,0,1,13.39-13.4h21.62Z"/></g></g></svg>